<svg width="1201" height="58" viewBox="0 0 1201 58" fill="none" xmlns="http://www.w3.org/2000/svg">
<path d="M66.7071 42.7071C67.0976 42.3166 67.0976 41.6834 66.7071 41.2929L60.3431 34.9289C59.9526 34.5384 59.3195 34.5384 58.9289 34.9289C58.5384 35.3195 58.5384 35.9526 58.9289 36.3431L64.5858 42L58.9289 47.6569C58.5384 48.0474 58.5384 48.6805 58.9289 49.0711C59.3195 49.4616 59.9526 49.4616 60.3431 49.0711L66.7071 42.7071ZM46 43H66V41H46V43Z" fill="white"/>
<path d="M0.292893 41.2929C-0.0976314 41.6834 -0.0976315 42.3166 0.292892 42.7071L6.65685 49.0711C7.04738 49.4616 7.68054 49.4616 8.07107 49.0711C8.46159 48.6805 8.46159 48.0474 8.07107 47.6569L2.41421 42L8.07107 36.3431C8.46159 35.9526 8.46159 35.3195 8.07107 34.9289C7.68054 34.5384 7.04738 34.5384 6.65686 34.9289L0.292893 41.2929ZM21 41L1 41L1 43L21 43L21 41Z" fill="white"/>
<g opacity="0.3">
<path d="M1094.18 46.8082V48.0002H1087.97V46.8082H1090.4V39.2802C1090.4 39.0402 1090.41 38.7922 1090.42 38.5362L1088.47 40.1922C1088.4 40.2509 1088.32 40.2882 1088.25 40.3042C1088.17 40.3202 1088.1 40.3229 1088.03 40.3122C1087.97 40.3016 1087.91 40.2802 1087.86 40.2482C1087.81 40.2109 1087.77 40.1736 1087.74 40.1362L1087.25 39.4562L1090.69 36.4882H1091.96V46.8082H1094.18Z" fill="white"/>
<circle cx="1091" cy="42.0002" r="15.5" stroke="white"/>
</g>
<g opacity="0.3">
<path d="M1140.89 46.5201C1141.06 46.5201 1141.19 46.5708 1141.29 46.6721C1141.38 46.7681 1141.43 46.8961 1141.43 47.0561V48.0001H1133.72V47.4641C1133.72 47.3575 1133.74 47.2455 1133.78 47.1281C1133.83 47.0055 1133.9 46.8961 1134 46.8001L1137.63 43.1601C1137.94 42.8561 1138.21 42.5628 1138.46 42.2801C1138.7 41.9975 1138.91 41.7175 1139.08 41.4401C1139.25 41.1575 1139.38 40.8695 1139.47 40.5761C1139.57 40.2828 1139.62 39.9735 1139.62 39.6481C1139.62 39.3281 1139.57 39.0481 1139.46 38.8081C1139.36 38.5628 1139.22 38.3601 1139.05 38.2001C1138.87 38.0401 1138.66 37.9201 1138.42 37.8401C1138.18 37.7601 1137.93 37.7201 1137.65 37.7201C1137.37 37.7201 1137.11 37.7601 1136.88 37.8401C1136.65 37.9201 1136.45 38.0321 1136.26 38.1761C1136.08 38.3201 1135.93 38.4908 1135.81 38.6881C1135.69 38.8855 1135.6 39.0988 1135.54 39.3281C1135.47 39.5308 1135.37 39.6668 1135.26 39.7361C1135.14 39.8055 1134.98 39.8215 1134.76 39.7841L1133.94 39.6401C1134.02 39.1068 1134.17 38.6375 1134.38 38.2321C1134.6 37.8268 1134.88 37.4881 1135.21 37.2161C1135.54 36.9388 1135.92 36.7308 1136.34 36.5921C1136.78 36.4535 1137.24 36.3841 1137.74 36.3841C1138.24 36.3841 1138.7 36.4588 1139.12 36.6081C1139.55 36.7521 1139.91 36.9628 1140.22 37.2401C1140.53 37.5175 1140.78 37.8561 1140.95 38.2561C1141.13 38.6508 1141.22 39.0988 1141.22 39.6001C1141.22 40.0268 1141.15 40.4241 1141.02 40.7921C1140.9 41.1548 1140.73 41.5015 1140.51 41.8321C1140.3 42.1628 1140.05 42.4855 1139.76 42.8001C1139.48 43.1095 1139.18 43.4241 1138.86 43.7441L1135.94 46.7201C1136.17 46.6615 1136.39 46.6135 1136.62 46.5761C1136.85 46.5388 1137.06 46.5201 1137.26 46.5201H1140.89Z" fill="white"/>
<circle cx="1138" cy="42.0001" r="15.5" stroke="white"/>
</g>
<path d="M1180.99 39.64C1181.07 39.1067 1181.22 38.6373 1181.44 38.232C1181.66 37.8267 1181.93 37.488 1182.26 37.216C1182.59 36.9387 1182.97 36.7307 1183.4 36.592C1183.83 36.4533 1184.3 36.384 1184.79 36.384C1185.29 36.384 1185.74 36.456 1186.16 36.6C1186.58 36.7387 1186.93 36.9387 1187.22 37.2C1187.52 37.456 1187.75 37.7653 1187.92 38.128C1188.09 38.4907 1188.17 38.8907 1188.17 39.328C1188.17 39.696 1188.12 40.0213 1188.03 40.304C1187.94 40.5867 1187.81 40.8347 1187.64 41.048C1187.47 41.2613 1187.27 41.4427 1187.03 41.592C1186.79 41.736 1186.52 41.856 1186.22 41.952C1186.95 42.1547 1187.5 42.4853 1187.87 42.944C1188.24 43.3973 1188.42 43.9733 1188.42 44.672C1188.42 45.2107 1188.32 45.696 1188.12 46.128C1187.92 46.5547 1187.64 46.9173 1187.29 47.216C1186.94 47.5093 1186.53 47.736 1186.06 47.896C1185.59 48.0507 1185.1 48.128 1184.57 48.128C1183.97 48.128 1183.45 48.056 1183.02 47.912C1182.58 47.7627 1182.22 47.5573 1181.91 47.296C1181.61 47.0293 1181.35 46.712 1181.15 46.344C1180.95 45.9707 1180.79 45.5627 1180.65 45.12L1181.33 44.832C1181.5 44.7573 1181.67 44.736 1181.84 44.768C1182.01 44.8 1182.13 44.8933 1182.2 45.048C1182.28 45.208 1182.37 45.3893 1182.47 45.592C1182.58 45.7893 1182.72 45.9787 1182.9 46.16C1183.07 46.336 1183.29 46.4853 1183.55 46.608C1183.82 46.7307 1184.15 46.792 1184.55 46.792C1184.94 46.792 1185.27 46.7307 1185.56 46.608C1185.85 46.48 1186.09 46.3173 1186.28 46.12C1186.47 45.9173 1186.62 45.6933 1186.71 45.448C1186.81 45.2027 1186.86 44.96 1186.86 44.72C1186.86 44.4213 1186.82 44.1467 1186.74 43.896C1186.67 43.6453 1186.53 43.432 1186.31 43.256C1186.1 43.0747 1185.81 42.9333 1185.44 42.832C1185.07 42.7307 1184.58 42.68 1183.98 42.68V41.544C1184.47 41.5387 1184.89 41.488 1185.22 41.392C1185.57 41.296 1185.84 41.1627 1186.05 40.992C1186.26 40.8213 1186.41 40.6187 1186.5 40.384C1186.59 40.1493 1186.64 39.888 1186.64 39.6C1186.64 39.2853 1186.59 39.0107 1186.5 38.776C1186.4 38.5413 1186.26 38.3467 1186.09 38.192C1185.92 38.032 1185.71 37.9147 1185.47 37.84C1185.24 37.76 1184.98 37.72 1184.7 37.72C1184.43 37.72 1184.17 37.76 1183.94 37.84C1183.7 37.92 1183.49 38.032 1183.31 38.176C1183.13 38.32 1182.98 38.4907 1182.86 38.688C1182.73 38.8853 1182.65 39.0987 1182.59 39.328C1182.52 39.5307 1182.42 39.6667 1182.3 39.736C1182.19 39.8053 1182.03 39.8213 1181.82 39.784L1180.99 39.64Z" fill="white"/>
<circle cx="1185" cy="42" r="15.5" stroke="white"/>
<line opacity="0.4" x1="1" y1="0.500122" x2="1201" y2="0.500017" stroke="white"/>
</svg>
